<?xml version="1.0" encoding="UTF-8"?>
<!DOCTYPE svg PUBLIC "-//W3C//DTD SVG 1.1//EN" "http://www.w3.org/Graphics/SVG/1.1/DTD/svg11.dtd">
<!-- Creator: CorelDRAW -->
<svg xmlns="http://www.w3.org/2000/svg" xml:space="preserve" width="100%" height="100%" style="shape-rendering:geometricPrecision; text-rendering:geometricPrecision; image-rendering:optimizeQuality; fill-rule:evenodd; clip-rule:evenodd"
viewBox="0 0 8.45081 4.40267"
 xmlns:xlink="http://www.w3.org/1999/xlink">
 <defs>
  <style type="text/css">
   <![CDATA[
    .fil0 {fill:none}
    .fil1 {fill:#FEFEFE;fill-rule:nonzero}
   ]]>
  </style>
 </defs>
 <g id="Layer_x0020_1">
  <metadata id="CorelCorpID_0Corel-Layer"/>
  <rect class="fil0" width="8.45081" height="4.40267"/>
  <path class="fil1" d="M3.64826 1.78591l0 0.27456c0,0.02924 0.01458,0.04399 0.04395,0.04399l0.17795 0c0.02923,0 0.04395,-0.01475 0.04395,-0.04399l0 -0.27456 0.26829 -0.49064c0.00738,-0.01391 0.00796,-0.02634 0.00183,-0.03766 -0.00607,-0.01153 -0.01645,-0.0173 -0.03115,-0.0173l-0.18541 0c-0.02675,0 -0.04619,0.01351 -0.05853,0.04021l-0.08642 0.1942 -0.03904 0.1062 -0.005 0 -0.03904 -0.1062 -0.08645 -0.1942c-0.01231,-0.0267 -0.0318,-0.04021 -0.05858,-0.04021l-0.18545 0c-0.01458,0 -0.02496,0.00577 -0.03117,0.0173 -0.00599,0.01132 -0.00554,0.02375 0.00197,0.03766l0.2683 0.49064zm4.38033 1.78197l-4.91986 0 0 -1.4746 -0.84066 -1.00498 -0.36076 0.00045 -0.3908 0.3275 -0.24171 0 -0.00281 -0.08322 0.59549 -0.49823 6.16111 0 0 2.73308zm-6.50238 -0.10261l-0.10659 -0.05244 -0.03272 -0.11428 0.39169 -0.32777 0.10847 0.05093 0.0309 0.1158 -0.39175 0.32776zm-0.38061 -0.37931l-0.03273 -0.11432 0.3917 -0.32777 0.10842 0.05097 0.03094 0.1158 -0.3917 0.32776 -0.10663 -0.05244zm-0.27412 -0.32812l-0.03267 -0.11433 0.39165 -0.32776 0.10846 0.05097 0.03089 0.1158 -0.39169 0.32776 -0.10664 -0.05244zm-0.27392 -0.32737l-0.03274 -0.11428 0.33077 -0.27684 0.16935 0 0.03094 0.1158 -0.3917 0.32776 -0.10662 -0.05244zm1.17826 -1.81331l-0.7242 0.60545 0 0.41236 0.53723 0 0.392 -0.32795 0.18752 0 0.73261 0.8768 -0.0182 0.14744 -0.14817 -0.00796 -0.55721 -0.66626 -0.16655 0.13945 0.55717 0.66613 -0.01819 0.14736 -0.14822 -0.008 -0.55707 -0.66608 -0.16646 0.13932 0.55708 0.66616 -0.01815 0.14731 -0.14673 -0.0087 -0.20432 -0.11246 -0.06389 -0.22577 -0.21488 -0.10744 -0.06438 -0.2265 -0.21407 -0.10632 -0.08723 -0.25386 -0.43215 0 -0.22834 0.19171 -0.35628 -0.40438 0 2.15055 8.04132 0 0 -3.16836 -6.47024 0zm5.14359 2.7269l0.16829 0c0.02924,0 0.04408,-0.01457 0.04408,-0.04381l0 -0.39656 0.15604 0.26235c0.00725,0.01212 0.01775,0.0181 0.03165,0.0181 0.01396,0 0.02441,-0.00598 0.03166,-0.0181l0.15599 -0.26235 0 0.39656c0,0.02924 0.01484,0.04381 0.04417,0.04381l0.1682 0c0.02932,0 0.04395,-0.01457 0.04395,-0.04381l0 -0.7762c0,-0.02933 -0.01463,-0.04399 -0.04395,-0.04399l-0.16207 0c-0.02365,0 -0.04056,0.00819 -0.0503,0.02441l-0.18765 0.32343 -0.18769 -0.32343c-0.00978,-0.01622 -0.0266,-0.02441 -0.0502,-0.02441l-0.16217 0c-0.02924,0 -0.04381,0.01466 -0.04381,0.04399l0 0.7762c0,0.02924 0.01457,0.04381 0.04381,0.04381zm-0.39722 -0.86396c-0.02933,0 -0.04396,0.01461 -0.04396,0.04399l0 0.77615c0,0.02924 0.01463,0.04386 0.04396,0.04386l0.17794 0c0.02924,0 0.04408,-0.01462 0.04408,-0.04386l0 -0.77615c0,-0.02938 -0.01484,-0.04399 -0.04408,-0.04399l-0.17794 0zm0.01091 -0.22575c-0.02749,0 -0.04136,0.01395 -0.04136,0.04135l0 0.08419c0,0.02777 0.01387,0.04158 0.04136,0.04158l0.15608 0c0.02772,0 0.04167,-0.01381 0.04167,-0.04158l0 -0.08419c0,-0.0274 -0.01395,-0.04135 -0.04167,-0.04135l-0.15608 0zm-0.77163 0.46003l0.15608 0 0 0.58587c0,0.02925 0.01485,0.04386 0.04418,0.04386l0.17793 0c0.02925,0 0.044,-0.01461 0.044,-0.04386l0 -0.58587 0.15595 0c0.02933,0 0.04399,-0.01461 0.04399,-0.04385l0 -0.14643c0,-0.02932 -0.01466,-0.04399 -0.04399,-0.04399l-0.57814 0c-0.0292,0 -0.04372,0.01467 -0.04372,0.04399l0 0.14643c0,0.02924 0.01452,0.04385 0.04372,0.04385zm-0.15543 0.41007l-0.29995 0 0 -0.11347 0.27429 0c0.02852,0 0.04256,-0.01413 0.04256,-0.04275l0 -0.12321c0,-0.02933 -0.01404,-0.04399 -0.04256,-0.04399l-0.27429 0 0 -0.10136 0.2927 0c0.02924,0 0.0436,-0.01449 0.0436,-0.04373l0 -0.13189c0,-0.02938 -0.01436,-0.04399 -0.0436,-0.04399l-0.50986 0c-0.02924,0 -0.04399,0.01461 -0.04399,0.04399l0 0.77615c0,0.02924 0.01475,0.04386 0.04399,0.04386l0.51711 0c0.02924,0 0.04382,-0.01462 0.04382,-0.04386l0 -0.1318c0,-0.02937 -0.01458,-0.04395 -0.04382,-0.04395zm-1.12398 -0.42469l0.08781 0c0.03904,0 0.06675,0.00635 0.08285,0.01887 0.01627,0.01256 0.02441,0.03626 0.02441,0.07131 0,0.03106 -0.00841,0.05388 -0.02482,0.0684 -0.01694,0.01484 -0.04422,0.022 -0.08244,0.022l-0.08781 0 0 -0.18058zm-0.21947 0.64434l0.17553 0c0.02932,0 0.04394,-0.01461 0.04394,-0.04385l0 -0.21237 0.06229 0 0.12567 0.2209c0.01355,0.02357 0.03394,0.03532 0.06075,0.03532l0.17804 0c0.01569,0 0.0258,-0.0054 0.03058,-0.01645 0.00501,-0.01118 0.00282,-0.0237 -0.00603,-0.03845l-0.14643 -0.24165c0.10414,-0.04883 0.15621,-0.13449 0.15621,-0.25761 0,-0.11129 -0.03111,-0.191 -0.09289,-0.23839 -0.06171,-0.04762 -0.15399,-0.07145 -0.27667,-0.07145l-0.31099 0c-0.02934,0 -0.044,0.01462 -0.044,0.04399l0 0.77616c0,0.02924 0.01466,0.04385 0.044,0.04385zm-0.3277 -0.92509c0.02764,0 0.04155,-0.01372 0.04155,-0.04135l0 -0.0647c0,-0.02777 -0.01391,-0.04162 -0.04155,-0.04162l-0.12429 0c-0.02771,0 -0.04153,0.01385 -0.04153,0.04162l0 0.0647c0,0.02763 0.01382,0.04135 0.04153,0.04135l0.12429 0zm-0.27549 0c0.02736,0 0.04135,-0.01372 0.04135,-0.04135l0 -0.0647c0,-0.02777 -0.01399,-0.04162 -0.04135,-0.04162l-0.12452 0c-0.0275,0 -0.04132,0.01385 -0.04132,0.04162l0 0.0647c0,0.02763 0.01382,0.04135 0.04132,0.04135l0.12452 0zm0.39265 0.06109l-0.17804 0c-0.02929,0 -0.0439,0.01461 -0.0439,0.04399l0 0.47097c0,0.0448 -0.00734,0.07735 -0.02209,0.09751 -0.01463,0.02048 -0.03904,0.03076 -0.07324,0.03076 -0.03402,0 -0.05839,-0.01028 -0.07314,-0.03076 -0.01466,-0.02016 -0.02177,-0.05308 -0.02177,-0.09873l0 -0.46975c0,-0.02938 -0.01463,-0.04399 -0.04396,-0.04399l-0.17821 0c-0.02924,0 -0.04381,0.01461 -0.04381,0.04399l0 0.49556c0,0.22524 0.12036,0.33795 0.36089,0.33795 0.24095,0 0.36108,-0.11271 0.36108,-0.33795l0 -0.49556c0,-0.02938 -0.01463,-0.04399 -0.04381,-0.04399zm2.48337 -0.37567l0.17803 0c0.02928,0 0.04412,-0.01466 0.04412,-0.04399l0 -0.77615c0,-0.02924 -0.01484,-0.04386 -0.04412,-0.04386l-0.17803 0c-0.0292,0 -0.04382,0.01462 -0.04382,0.04386l0 0.77615c0,0.02933 0.01462,0.04399 0.04382,0.04399zm0.01091 -0.92267l0.15608 0c0.02781,0 0.04166,-0.01381 0.04166,-0.04135l0 -0.08442c0,-0.02754 -0.01385,-0.04135 -0.04166,-0.04135l-0.15608 0c-0.02736,0 -0.04136,0.01381 -0.04136,0.04135l0 0.08442c0,0.02754 0.014,0.04135 0.04136,0.04135zm-0.69832 0.92267l0.49042 0c0.02924,0 0.04373,-0.01466 0.04373,-0.04399l0 -0.14638c0,-0.02937 -0.01449,-0.04399 -0.04373,-0.04399l-0.26849 0 0 -0.58578c0,-0.02924 -0.01452,-0.04386 -0.04376,-0.04386l-0.17817 0c-0.02924,0 -0.04394,0.01462 -0.04394,0.04386l0 0.77615c0,0.02933 0.0147,0.04399 0.04394,0.04399zm-0.60685 -0.64442l0.0878 0c0.03904,0 0.06675,0.00622 0.08285,0.01901 0.01627,0.01242 0.02446,0.0363 0.02446,0.0714 0,0.03085 -0.0084,0.05356 -0.02485,0.06831 -0.01691,0.01449 -0.04422,0.02192 -0.08246,0.02192l-0.0878 0 0 -0.18064zm-0.21948 0.6444l0.17553 0c0.02933,0 0.04395,-0.01467 0.04395,-0.04399l0 -0.21237 0.06228 0 0.12568 0.221c0.01359,0.0236 0.03393,0.03536 0.06076,0.03536l0.17807 0c0.01566,0 0.02579,-0.00554 0.03058,-0.01637 0.00497,-0.01117 0.00264,-0.02382 -0.00608,-0.03845l-0.14642 -0.24174c0.10417,-0.04886 0.15622,-0.13453 0.15622,-0.25743 0,-0.11146 -0.03108,-0.19118 -0.09291,-0.23861 -0.0617,-0.04758 -0.15398,-0.07146 -0.27666,-0.07146l-0.311 0c-0.02932,0 -0.04399,0.01467 -0.04399,0.04392l0 0.77615c0,0.02932 0.01467,0.04399 0.04399,0.04399zm-0.70937 2e-005l0.5171 0c0.02924,0 0.04387,-0.01466 0.04387,-0.04399l0 -0.13175c0,-0.02925 -0.01463,-0.044 -0.04387,-0.044l-0.29995 0 0 -0.11347 0.27443 0c0.02856,0 0.04256,-0.01418 0.04256,-0.0427l0 -0.12313c0,-0.02937 -0.014,-0.04399 -0.04256,-0.04399l-0.27443 0 0 -0.10136 0.29272 0c0.02936,0 0.04372,-0.01462 0.04372,-0.04399l0 -0.13176c0,-0.02924 -0.01436,-0.04386 -0.04372,-0.04386l-0.50987 0c-0.02924,0 -0.04395,0.01462 -0.04395,0.04386l0 0.77615c0,0.02933 0.01471,0.04399 0.04395,0.04399z"/>
 </g>
</svg>
